<svg width="21" height="19" viewBox="0 0 21 19" fill="none" xmlns="http://www.w3.org/2000/svg">
<path d="M5.15381 6.15234L0.939453 6.15234V18.4601H5.15381V6.15234Z" fill="black"/>
<path d="M5.53821 2.30676C5.51158 0.997335 4.6473 0 3.24384 0C1.84038 0 0.922852 0.997335 0.922852 2.30676C0.922852 3.58906 1.81327 4.61511 3.19059 4.61511H3.21681C4.6473 4.61511 5.53821 3.58906 5.53821 2.30676Z" fill="black"/>
<path d="M20.1534 11.4228C20.1534 7.56168 18.147 5.76465 15.3939 5.76465C13.1726 5.76465 12.2471 6.98475 11.6918 7.84067V6.15377H7.43848C7.49362 7.33332 7.43848 18.4614 7.43848 18.4614H11.6918V11.923C11.6918 10.5254 12.0764 9.23068 13.9995 9.23068C15.5379 9.23068 15.9225 10.2338 15.9225 11.923V18.4611H20.1533L20.1534 11.4228Z" fill="black"/>
</svg>
