<svg width="19" height="16" viewBox="0 0 19 16" fill="none" xmlns="http://www.w3.org/2000/svg">
<path d="M8.96414 4.40118L9.00415 5.06662L8.33718 4.98514C5.90939 4.67279 3.78841 3.61353 1.98758 1.83451L1.10718 0.951787L0.880406 1.60364C0.400185 3.05673 0.706993 4.59131 1.70745 5.62341C2.24103 6.19378 2.12098 6.27526 1.20055 5.93576C0.880406 5.82711 0.600277 5.74563 0.573598 5.78637C0.480222 5.88143 0.800369 7.11724 1.05382 7.60613C1.40065 8.28515 2.10764 8.95058 2.88133 9.34441L3.53496 9.65676L2.76127 9.67034C2.01426 9.67034 1.98758 9.68392 2.06762 9.9691C2.33441 10.8518 3.38823 11.7889 4.5621 12.1963L5.38915 12.4815L4.66882 12.916C3.60166 13.5407 2.34775 13.8938 1.09384 13.921C0.493561 13.9345 0 13.9889 0 14.0296C0 14.1654 1.62742 14.9259 2.57452 15.2247C5.41583 16.1074 8.79072 15.7271 11.3252 14.2197C13.1261 13.1469 14.9269 11.0148 15.7673 8.95058C16.2208 7.85058 16.6744 5.84069 16.6744 4.87649C16.6744 4.2518 16.7144 4.17032 17.4614 3.4234C17.9016 2.98883 18.3151 2.51352 18.3952 2.37772C18.5285 2.11969 18.5152 2.11969 17.8349 2.35056C16.701 2.75797 16.541 2.70365 17.1012 2.09253C17.5147 1.65796 18.0083 0.870305 18.0083 0.63944C18.0083 0.598699 17.8082 0.666601 17.5814 0.788824C17.3413 0.924627 16.8078 1.12833 16.4076 1.25055L15.6872 1.48142L15.0336 1.03327C14.6734 0.788824 14.1665 0.517218 13.8997 0.435736C13.2194 0.245612 12.179 0.272772 11.5653 0.490057C9.8979 1.10117 8.84408 2.67648 8.96414 4.40118Z" fill="black"/>
</svg>
